<?xml version="1.0" encoding="UTF-8" standalone="no"?>
<svg
   xmlns:dc="http://purl.org/dc/elements/1.1/"
   xmlns:cc="http://creativecommons.org/ns#"
   xmlns:rdf="http://www.w3.org/1999/02/22-rdf-syntax-ns#"
   xmlns:svg="http://www.w3.org/2000/svg"
   xmlns="http://www.w3.org/2000/svg"
   id="svg1048"
   version="1.1"
   viewBox="0 0 48.128561 30.893149"
   height="116.76151"
   width="181.90323">
  <defs
     id="defs1042" />
  <metadata
     id="metadata1045">
    <rdf:RDF>
      <cc:Work
         rdf:about="">
        <dc:format>image/svg+xml</dc:format>
        <dc:type
           rdf:resource="http://purl.org/dc/dcmitype/StillImage" />
        <dc:title></dc:title>
      </cc:Work>
    </rdf:RDF>
  </metadata>
  <g
     transform="translate(-15.868724,-13.455367)"
     id="layer1">
    <path
       id="OrangeOutline"
       d="m 35.777412,43.799376 c -9.499077,-1.26839 -16.496132,-5.30444 -18.766713,-10.82503 -0.456969,-1.11106 -0.598439,-1.97861 -0.603007,-3.69792 -0.005,-1.97792 0.09407,-2.46002 0.831003,-4.03487 1.954483,-4.17663 7.071959,-7.96636 13.257452,-9.81776 7.014226,-2.09946 15.716391,-2.0951 22.594579,0.0113 2.359403,0.72255 4.853162,1.84622 3.405203,1.53436 -0.43548,-0.0938 -1.326248,-0.37753 -1.97947,-0.63052 -2.143617,-0.8302 -6.241494,-1.3924 -10.029351,-1.37594 -10.012353,0.0435 -18.932093,4.15542 -22.118149,10.19623 -0.635228,1.2044 -0.711399,1.63142 -0.711399,3.98812 0,2.37088 0.07402,2.77972 0.727529,4.01995 0.721056,1.36837 3.72203,4.81156 3.97241,4.55777 0.107554,-0.10902 3.371965,-11.81282 4.40055,-15.77719 l 0.292945,-1.12906 3.616873,0.0733 3.61688,0.0733 0.04858,1.5836 c 0.02673,0.87097 0.06195,3.72142 0.07831,6.33431 l 0.02973,4.75075 0.673952,-1.31964 c 0.370673,-0.72581 1.358897,-2.56674 2.196056,-4.09093 0.837158,-1.52418 1.909723,-3.48387 2.383462,-4.35485 0.473747,-0.87096 1.049591,-1.91018 1.279652,-2.30938 l 0.418306,-0.72582 h 3.490571 c 1.91982,0 3.537755,0.0891 3.595434,0.19796 0.05766,0.10886 -0.539885,2.61604 -1.327904,5.57148 -0.81266,3.04786 -1.333363,5.47296 -1.203095,5.60321 0.380778,0.38078 3.528179,-0.2566 5.275964,-1.06845 5.610069,-2.60585 6.478719,-7.81775 1.83475,-11.00839 -0.706768,-0.48557 -1.937782,-1.07262 -2.735598,-1.30456 -1.618126,-0.47039 -4.662401,-0.6097 -6.272676,-0.28703 -1.015828,0.20355 -1.03079,0.1968 -0.395901,-0.17871 1.209984,-0.71567 4.83726,-1.08993 7.210695,-0.744 7.446713,1.08537 10.904974,6.88571 6.919997,11.60652 -2.006008,2.37641 -5.533139,3.75277 -9.617051,3.75277 h -2.651379 l -0.392949,1.38564 c -0.216125,0.76209 -0.612534,2.2764 -0.880909,3.3651 l -0.487963,1.97948 -2.314771,0.0766 c -2.119754,0.0701 -2.302912,0.0368 -2.17401,-0.3959 0.07741,-0.25985 0.916054,-3.45573 1.863609,-7.10195 0.947563,-3.64622 1.801979,-6.85297 1.8987,-7.12612 0.617262,-1.74313 -0.907714,0.93297 -7.011419,12.30399 l -1.20421,2.24341 -2.045458,0.0771 -2.045458,0.0771 -0.06294,-6.14748 c -0.03462,-3.38111 -0.04998,-6.7794 -0.03412,-7.55175 0.01586,-0.77235 -0.06374,-1.3068 -0.176812,-1.18769 -0.11312,0.11913 -0.574399,1.7012 -1.025064,3.51572 -0.834947,3.36174 -1.450853,5.61539 -2.557235,9.35701 -0.715609,2.4201 -0.839483,2.22492 2.008749,3.1648 2.457263,0.81088 5.95374,1.43102 9.237544,1.6384 4.060123,0.25641 10.236138,-0.82549 13.859321,-2.42783 2.01277,-0.89014 2.438517,-0.79237 0.625832,0.14372 -2.091205,1.07992 -5.842971,2.31365 -8.868963,2.91645 -2.955626,0.58881 -9.349302,0.86663 -11.950515,0.51929 z"
       style="fill:#f27710;fill-opacity:1;stroke-width:0.26393017" />
    <path
       id="MPGreenStencil"
       d="m 25.991954,39.048496 c 0.102739,-0.48003 0.282761,-0.99358 0.400069,-1.14129 0.117298,-0.14768 0.470239,-1.29568 0.784311,-2.5511 0.706633,-2.82452 1.004084,-3.92624 2.428739,-8.99596 0.622555,-2.21543 1.211637,-4.36842 1.309064,-4.78442 l 0.177135,-0.75638 3.493393,-1.3e-4 3.493395,-1.3e-4 0.07212,6.48367 c 0.04589,4.1211 0.168842,6.45145 0.337734,6.3952 0.146138,-0.0487 0.779262,-1.11538 1.406938,-2.37048 0.627667,-1.25507 2.157481,-4.1248 3.399567,-6.37715 l 2.25834,-4.09517 h 3.605488 c 3.306119,0 3.594245,0.039 3.470225,0.46994 -0.255321,0.88714 -2.529862,9.60016 -2.698912,10.33864 -0.168055,0.73411 -0.160684,0.73843 1.247243,0.73187 2.398774,-0.0112 5.541069,-1.33244 7.565398,-3.18109 0.999617,-0.91286 2.043184,-3.12884 2.046537,-4.34573 0.0011,-0.52485 -0.308737,-1.5785 -0.689296,-2.34143 -1.346647,-2.69978 -5.044376,-4.59997 -9.064148,-4.65788 -3.05938,-0.044 -1.428716,-0.43148 1.993177,-0.47352 6.231329,-0.0765 10.695393,3.01874 10.713747,7.42873 0.007,1.81087 -0.471403,2.93627 -1.915769,4.50171 -2.044522,2.21591 -6.146371,3.69001 -9.982409,3.58748 -2.542257,-0.068 -2.130785,-0.56094 -3.34908,4.01221 l -0.740179,2.77839 -2.083285,0.0412 c -1.145804,0.0227 -2.083223,-0.0479 -2.083165,-0.1568 1.3e-4,-0.20253 0.842627,-3.48243 1.880526,-7.32096 0.319479,-1.18158 0.763053,-2.87336 0.985703,-3.75952 0.222647,-0.88617 0.576043,-2.12902 0.785325,-2.76189 0.793737,-2.4003 0.272815,-2.2658 -1.076414,0.27793 -2.199469,4.14676 -6.42172,11.92347 -6.913124,12.73291 -0.483972,0.79721 -0.626689,0.85577 -2.290133,0.93988 -1.03017,0.0521 -1.807477,-0.0229 -1.853852,-0.17884 -0.0825,-0.27742 -0.373595,-10.76591 -0.382902,-13.79537 -0.005,-1.49033 -0.05726,-1.66808 -0.40846,-1.37693 -0.221751,0.18387 -0.403182,0.66929 -0.403182,1.07874 0,0.40944 -0.223955,1.51242 -0.497678,2.45108 -0.273723,0.93865 -0.767617,2.73379 -1.09756,3.98919 -0.329931,1.25542 -0.764277,2.82775 -0.965195,3.4941 -0.200928,0.66634 -0.499437,1.80939 -0.663344,2.54011 -0.42944,1.91436 -0.582498,2.02189 -2.878387,2.02189 h -2.004417 z"
       style="fill:#007756;fill-opacity:1;stroke-width:0.26866585" />
  </g>
</svg>
